<svg id="Layer_1" data-name="Layer 1" xmlns="http://www.w3.org/2000/svg" viewBox="0 0 500 500"><defs><style>.cls-1,.cls-2,.cls-3,.cls-4{fill-rule:evenodd;}.cls-2{fill:#fff;}.cls-3{fill:#e25c27;}.cls-4{fill:#b73b15;}</style></defs><title>6906620</title><path class="cls-1" d="M184.54,188.71l62.12-37.34a40.8,40.8,0,0,1,55.82,13.91l68.68,114.26a40.8,40.8,0,0,1-13.91,55.82L295.13,372.7a40.79,40.79,0,0,1-55.82-13.91L170.63,244.53A40.81,40.81,0,0,1,184.54,188.71Z"/><path class="cls-2" d="M290.92,150.59l61.32,35.13c18.93,10.84,23.43,35.06,12.6,55.29L300.32,361.47c-6,11.22-20,18.23-32.44,19.77-10,1.24-19.15-1.1-30.77-7.76l-61.32-35.13c-18.93-10.84-24.6-35.72-12.6-55.29l71.5-116.61C246.69,146.88,272,139.74,290.92,150.59Z"/><path class="cls-3" d="M291.22,150.59l63.39,35.13A40.78,40.78,0,0,1,370.47,241L305.86,357.62a40.78,40.78,0,0,1-55.29,15.86l-63.39-35.13a40.78,40.78,0,0,1-15.86-55.29l64.61-116.61A40.78,40.78,0,0,1,291.22,150.59Z"/><polygon class="cls-2" points="336.96 310.88 303.9 360.84 329.72 314.4 336.96 310.88"/><path class="cls-2" d="M303.84,199.94a8.87,8.87,0,1,0-8.87-8.87A8.89,8.89,0,0,0,303.84,199.94Z"/><path class="cls-1" d="M286.84,148.49c.62-2.18,1.5-5.16,2.2-7,.82-2.09,1.76-4.2,2.82-6.29,5.93-11.74,14.44-20.82,23.41-26,9.32-5.4,19.2-6.67,27.41-2.52s13.06,12.85,14.25,23.56c1.14,10.3-1.12,22.54-7.05,34.27-5.43,10.76-13,19.29-21.18,24.63-8.51,5.59-17.66,7.75-25.67,5.45a2.73,2.73,0,1,1,1.49-5.25c6.44,1.84,14,0,21.19-4.75C333.09,179.78,340,172,345,162.08c5.44-10.77,7.53-21.91,6.5-31.22-1-8.9-4.82-16-11.28-19.3s-14.48-2.12-22.23,2.37c-8.1,4.69-15.83,13-21.28,23.75-1,1.92-1.84,3.87-2.61,5.83-.29.75-.57,1.49-.83,2.24s-1,3.39-1.46,5.17l-.61-.34A43.73,43.73,0,0,0,286.84,148.49Z"/><path class="cls-2" d="M302,195.37c15.71,1.07,27.94-4.5,38.29-16.37,8.29-9.51,11.66-18.16,15.18-29.45-2.89,16.17-9.62,28.82-21.2,38.37-10.13,8.34-19.76,11.13-32.78,10.5Z"/><path class="cls-1" d="M176.5,306.4c-34.21,5-63,12.45-19,18.91s99.24,19.81,121.64,10.4l89.14-37.45c7.49-3.14,6.13-7-1.51-8.56-11.45-2.34-24.66-4.74-26.81-4.86C340,284.83,184.1,300.35,176.5,306.4Z"/><path class="cls-1" d="M275.26,275.75l-15.68-.94c-7.79-.47-14.79,11-15.64,25.59s4.76,26.82,12.55,27.29l15.68.94c7.79.47,14.79-11,15.64-25.59S283.05,276.22,275.26,275.75Z"/><path class="cls-1" d="M352.35,263.76l-8.6-.52c-4.27-.26-8.11,7.77-8.58,17.94s2.61,18.61,6.88,18.87l8.6.52c4.27.26,8.11-7.77,8.58-17.94S356.62,264,352.35,263.76Z"/><path class="cls-1" d="M180,281.63l-8.6-1.88c-4.27-.94-8.11,6.48-8.58,16.57s2.61,19,6.88,20l8.6,1.88c4.27.94,8.11-6.48,8.58-16.57S184.3,282.56,180,281.63Z"/><path class="cls-2" d="M133.43,292.84c-.42-4.81-.59-10.77.6-15.12a24.61,24.61,0,0,1,4.72-9,36.65,36.65,0,0,1,2-8.47,18,18,0,0,1,5.64-8.42,21.49,21.49,0,0,1,5.06-2.56c2.21-.88,4.45-1.67,6.69-2.45,6-2.07,12-4,18-5.87q11.76-3.68,23.57-7.17c21.18-17.36,36-23.79,64-24.09,21.6-.23,51.44,1.5,70.08,13.21a73.52,73.52,0,0,1,15.57,12.75,26.89,26.89,0,0,0,4.41,3.76c1.77,1.28,3.6,2.46,5.48,3.58,1.05.63,2.13,1.28,3.24,1.81,4.19,2,5.14,6.34,5.77,10.47.49,3.17.78,6.37,1.05,9.57.35,4.13.12,8.33.6,12.5,1,8.95-3.37,12.1-10.51,12.26l-1.58-25.51v-5.82L152.47,273.35c-7.37-1.67-8.23,30.48-9.52,31.77C132.67,304.52,130.73,296.64,133.43,292.84Z"/><path class="cls-1" d="M201.67,237.49C222.13,220.6,236,214.1,263.76,213.8c20.23-.22,49.92,1.32,67.86,12.58a71,71,0,0,1,14.67,12,31.17,31.17,0,0,0,5.08,4.37c1.86,1.35,3.81,2.61,5.79,3.78,1.13.68,2.38,1.42,3.57,2,2.62,1.25,3.1,4.9,3.49,7.4.47,3.07.76,6.21,1,9.29.24,2.83.44,5.66.63,8.49.1,1.55.16,3.2.34,4.74a10.69,10.69,0,0,1-1.63,7.05l-.25.36-9.63,7.91V277.87a34.05,34.05,0,0,0-.6-6.82,11.93,11.93,0,0,0-.93-2.78,4.8,4.8,0,0,0-.43.24c-1.76,1.11-3.24,7.49-3.65,9.49a93.32,93.32,0,0,0-1.63,13.08l-.12,2.28L283.7,315.13l.69-6c.8-6.92,1.29-20.18-1.34-26.83-.77-1.93-2.13-4-4.2-4.7-4.64-1.56-9.05,4.41-10.85,7.63a33.92,33.92,0,0,0-3,7.81,80,80,0,0,0-2.17,16.59c-.1,2.12-.15,4.25-.29,6.37-.12,1.75-.27,3.86-1.51,5.16-2.83,2.94-13.33,2.7-17.15,2.62-6.35-.13-12.77-.68-19.12-1.38-9.59-1.05-19.18-2.51-28.72-4.15-8.57-1.48-52.34-8.93-59-16-2.64-2.8-1.47-6,.66-8.19-.5-4.81-.78-11.34.31-15.34a20.12,20.12,0,0,1,4.79-8.4v-.05a30.44,30.44,0,0,1,1.8-8.69,14.17,14.17,0,0,1,4.27-6.55,19.3,19.3,0,0,1,4.1-2c2.14-.85,4.33-1.63,6.51-2.38,5.93-2.05,11.92-4,17.92-5.83Q189.48,241.09,201.67,237.49Z"/><path class="cls-3" d="M203.54,240.75C192,244.17,154.6,255.39,151.11,258s-4.75,11-4.75,12.54v1.58a15.66,15.66,0,0,0-4.91,7.78c-1.38,5.07,0,15.84,0,15.84s-3.56,2.4-1.9,4.16,11.72,7,56.86,14.83,60.35,5.53,61.93,3.88-.79-22.22,6.49-35.25,17.74-11.76,21.54-2.19S288,309.8,288,309.8l55.91-19.12s-1.17-9.65.5-17.69c.78-3.75,2.92-8.08,4.73-9.22,3.47-2.2,8.46,0,9.83,3.32,2.61,6.35,1.95,10.68,2,16.88l.69-.7a7.16,7.16,0,0,0,1-4.65c-.32-2.75-1.38-26-3.29-26.89s-11.4-6.23-15.68-11.08A71.31,71.31,0,0,0,321.77,225c-13.62-6.2-43.64-7.79-57.76-7.64C237.3,217.69,224.14,223.66,203.54,240.75Z"/><path class="cls-4" d="M157.35,267c-.39.42-.84,2.93-.87,6a2.86,2.86,0,0,0,2.26,2.78c11.72,3.14,33.51,5.94,47.15,7.15,2.42.21,4.78.69,5.92-1.74s1.23-4.47-.19-5.85c-1-1-18-3.05-32-5-12.4-1.74-22.1-3.47-22.23-3.33Zm-1.24,9.59c0-.27,10.47,4.28,25.45,5.71,6.08.58,18.17,2.72,26.08,2.17,2.7-.18,2.69-.38.76,2-4.66,5.72-9.65,6-20.64,4.89-11.86-1.22-19.76-3-26.45-5.46C158.26,284.74,156.6,280.39,156.11,276.54Z"/><path class="cls-4" d="M141,282.57a72.71,72.71,0,0,0,.45,13.2s-3.56,2.4-1.9,4.16,11.72,7,56.86,14.83,60.35,5.53,61.93,3.88-.79-22.22,6.49-35.25,17.74-11.76,21.54-2.19S288,309.8,288,309.8l55.91-19.12s-.6-21.84,5.23-25.25,8.42,1.11,9.83,6.32c1.65,6.07.75,13.71.9,13.54l1.78-2a7.16,7.16,0,0,0,1-4.65c-.25-2.19-1-17.37-2.23-23.92a23.14,23.14,0,0,1-1,3.37c-1.27,3.25-19.32,4.54-19.32,4.54l-53.22,12.32s-3.64-5.92-10.61-5.23-11.88,11.16-16,19c-3.24,6.17-12.09,9.74-17.71,10.54,5.81,4.22,10.81,16.52,7.89,17.26s-20.59-.76-22-2.43-3.33-13-4.28-13.4-14.89-2-14.89-2a103.66,103.66,0,0,1,10.55-1.74c-7.13.12-13.57.8-14.5,1.29-1.9,1-9.82-.59-9.82-.59s-40.07-5.74-42.13-7.29S143.69,283.66,141,282.57Z"/><path class="cls-1" d="M141.22,281c-1,5.37-.4,14.09-.4,14.09.21.89,2.13,1.77,3.4,2.06s2.66.67,3.06-.32a31.64,31.64,0,0,0,1.66-7.24C149.24,286.43,149,285.61,141.22,281Z"/><path class="cls-1" d="M151.11,258c-3.48,2.64-4.75,11-4.75,12.54v1.58l-.2.16a44.3,44.3,0,0,0,6.09,3.63.85.85,0,0,0,1.15-.57c.29-2.73,0-7.86,0-8.65C153.45,266.14,152.11,257.27,151.11,258Z"/><path class="cls-1" d="M238,220.58c-11.9,3.36-21.74,9.65-34.38,20.13l84.65,7.55s9.89-23.92,9.19-24.95S256.06,221.11,238,220.58Z"/><path class="cls-1" d="M211.5,233.75c-3.72-2.36-9.11-1.82-10.93,4.49S206.43,239.46,211.5,233.75Z"/><path class="cls-1" d="M227.26,272.47c-7,4.65-15.52,14.27-8.08,13.77S248,285,252,280.93s9.5-12.73,5.86-13.43S234.86,270.08,227.26,272.47Z"/><path class="cls-1" d="M156.46,265.5c-.41.42-.88,2.93-.9,6a2.89,2.89,0,0,0,2.35,2.78c12.21,3.14,34.91,5.94,49.11,7.15,2.52.21,5,.69,6.16-1.74s1.28-4.47-.19-5.85c-1.06-1-18.75-3-33.38-5-12.91-1.74-23-3.46-23.15-3.33Zm-.67,10c0-.27,10.28,3.92,25.89,5.35,6.33.58,18.93,2.72,27.17,2.17,2.81-.18,2.8-.38.79,2-4.86,5.72-10,6-21.5,4.89-12.36-1.22-20.27-3.26-27.24-5.7C157.72,283.05,156.3,279.31,155.79,275.46Z"/><path class="cls-1" d="M206.11,298.68c11.25-2.49,26.77-3.62,32.79.23s11.4,16.84,8.39,17.61-20.59-.76-22-2.43-3.33-13-4.28-13.4S206.11,298.68,206.11,298.68Z"/><path class="cls-1" d="M235.73,303.47c-4.76-.21-6.68-.54-10.79-.67-4.65-.15-11.1-.05-9.16.74a53.39,53.39,0,0,0,8.59,1.5C230.23,305.66,235.52,305.37,235.73,303.47Z"/><path class="cls-1" d="M238.74,309.19c-10.14-.45-23.6-1.42-20,.07S238.43,312,238.74,309.19Z"/><path class="cls-1" d="M150.36,299.28c3.8-4.52,4.12-7.36,9.5-6.71s40.23,6.7,40.23,6.7a17.31,17.31,0,0,1,8.08,6.19l3.8,5S189.64,310.67,150.36,299.28Z"/><path class="cls-1" d="M293.78,296.35l41.34-14.14L329.89,290l-36.43,12.54Z"/><path class="cls-1" d="M360.56,255c-13.39-4.25-60.7,4.48-92.41,11.32l-1.45.18c14.74-6.2,74.72-15.35,88.81-16.9,1.79,1.06,3.22,1.83,3.84,2.13.28.13.55.77.79,1.75Z"/><path class="cls-1" d="M301.91,229.55c-2.91,7.63-6.08,20-5.28,20.09s41.66-6.2,42.29-7.12c1.36-2-7.91-8.66-13-11.58a57.83,57.83,0,0,0-20.24-6.79C303.64,223.82,303.05,226.56,301.91,229.55Z"/><path class="cls-1" d="M305,239.69c-2.06.19-4.28,2.28-4.28,8,0,1,0,1.84,0,2.54.26,7.37,6.74,6.33,6.28-.57,0,0,10.16-.33,11.5-1.6.68-.64,1.31-1.47-1-3.93A15.72,15.72,0,0,0,305,239.69Z"/><polygon class="cls-1" points="293.75 293.84 342.72 278.86 332.36 285.64 293.42 302.14 293.75 293.84"/><path class="cls-1" d="M159.88,254.44l-1,.87c-2.75,3.22-9.33,9-2.08,10,10.39,1.49,29.26,4.26,43.67,6.18,8.13,1.09,13.43,2.4,18.44,1.86,4.32-.46,17.15-4.21,30.77-8.54,15.69-5,32.36-10.72,38.24-13.08,4.59-1.84,1.16-3.12-3.89-4l3.42-.79s7.69,2.16,3.78,5.26c-1.35,1.07-21.91,8.29-40.92,14.34-13.71,4.36-26.66,8.14-31.1,8.61-5.74.61-10.14-.21-19.52-1.57-13.72-2-33.23-5.08-43-6.49-8.83-1.27-4-7.21-.65-11.26C157.13,255.42,158.44,254.94,159.88,254.44Z"/><path class="cls-2" d="M276.06,281.85c-2.6-.16-5.12,1.91-7.1,5.37a33.4,33.4,0,0,0-3.81,14.5c0,.71,0,1.44,0,2.2a31.64,31.64,0,0,0,2.57,13.19c1.52,3.22,3.6,5.3,5.93,5.56l.24,0c2.6.16,5.12-1.91,7.1-5.37a33.4,33.4,0,0,0,3.81-14.5c0-.71.06-1.44.06-2.2a31.64,31.64,0,0,0-2.57-13.19c-1.52-3.22-3.6-5.3-5.93-5.56l-.25,0Zm-8.67,4.41c2.3-4,5.37-6.41,8.67-6.21l.33,0c3,.34,5.65,2.83,7.46,6.66a33.55,33.55,0,0,1,2.75,14c0,.72,0,1.49-.06,2.29a35.21,35.21,0,0,1-4,15.26c-2.3,4-5.37,6.41-8.67,6.21l-.33,0c-3-.34-5.65-2.83-7.46-6.66a33.55,33.55,0,0,1-2.75-14c0-.72,0-1.49.06-2.29A35.08,35.08,0,0,1,267.39,286.26Z"/><path class="cls-2" d="M275.72,296.76a2.38,2.38,0,0,0-1.91,1.34,8.51,8.51,0,0,0-1.19,4.07c0,.19,0,.4,0,.63a8,8,0,0,0,.78,3.65,2.21,2.21,0,0,0,1.51,1.35H275a2.38,2.38,0,0,0,1.91-1.34,8.51,8.51,0,0,0,1.19-4.07c0-.19,0-.4,0-.63a8,8,0,0,0-.78-3.65,2.21,2.21,0,0,0-1.51-1.35Zm-3.43.32a3.93,3.93,0,0,1,3.43-2.11l.17,0a4.06,4.06,0,0,1,3,2.38,9.86,9.86,0,0,1,1,4.52c0,.21,0,.46,0,.72a10.26,10.26,0,0,1-1.46,4.89,3.93,3.93,0,0,1-3.43,2.11l-.17,0a4.06,4.06,0,0,1-3-2.38,9.86,9.86,0,0,1-1-4.52c0-.21,0-.46,0-.72A10.19,10.19,0,0,1,272.29,297.08Z"/><path class="cls-2" d="M273.81,297.88c-1.13-.07-2.14,1.74-2.25,4s.7,4.22,1.83,4.29,2.14-1.74,2.25-4S274.94,298,273.81,297.88Z"/><path class="cls-2" d="M273.81,298.78c-.21,0-.47.26-.72.71a6,6,0,0,0-.64,2.54c0,.1,0,.23,0,.39a5.64,5.64,0,0,0,.42,2.27c.17.38.36.61.51.63h0c.21,0,.47-.26.72-.71a6,6,0,0,0,.64-2.54c0-.1,0-.23,0-.39a5.64,5.64,0,0,0-.42-2.27c-.17-.38-.36-.62-.52-.63Zm-2.29-.24a2.59,2.59,0,0,1,2.3-1.56h.1a2.73,2.73,0,0,1,2.05,1.75,7.48,7.48,0,0,1,.6,3c0,.13,0,.29,0,.48a7.81,7.81,0,0,1-.85,3.28,2.58,2.58,0,0,1-2.29,1.56h-.1a2.7,2.7,0,0,1-2-1.75,7.48,7.48,0,0,1-.6-3,4.36,4.36,0,0,1,0-.48,7.21,7.21,0,0,1,.82-3.28Zm1.87,6.77Z"/><path class="cls-2" d="M352.79,268c-1.43-.09-2.81,1.37-3.89,3.8a28.64,28.64,0,0,0-2.09,10.12c0,.5,0,1,0,1.53a27,27,0,0,0,1.41,9.15c.83,2.23,2,3.65,3.25,3.81h.13c1.43.09,2.81-1.37,3.89-3.8a28.64,28.64,0,0,0,2.09-10.12c0-.5,0-1,0-1.53a27,27,0,0,0-1.41-9.15c-.83-2.23-2-3.65-3.25-3.81ZM348,271.14c1.26-2.82,2.94-4.5,4.75-4.39l.18,0c1.67.21,3.1,1.92,4.09,4.57a28.67,28.67,0,0,1,1.51,9.7q0,.75,0,1.59a29.83,29.83,0,0,1-2.21,10.65c-1.26,2.82-2.94,4.5-4.75,4.39l-.18,0c-1.67-.21-3.1-1.92-4.09-4.57a28.67,28.67,0,0,1-1.51-9.7q0-.75,0-1.59A29.79,29.79,0,0,1,348,271.14Z"/><path class="cls-2" d="M352.6,278.37c-.37,0-.74.34-1.05.95a7.17,7.17,0,0,0-.65,2.84c0,.13,0,.28,0,.44a6.82,6.82,0,0,0,.43,2.54c.22.54.51.89.83.93h0c.37,0,.74-.34,1-.95a7.33,7.33,0,0,0,.66-2.84c0-.13,0-.28,0-.44a6.82,6.82,0,0,0-.43-2.54c-.22-.54-.51-.89-.83-.93Zm-1.88.25c.49-1,1.15-1.54,1.88-1.5h.09c.68.09,1.25.7,1.64,1.63a8.47,8.47,0,0,1,.55,3.13c0,.15,0,.32,0,.5a8.66,8.66,0,0,1-.8,3.42c-.49,1-1.15,1.54-1.88,1.5h-.09c-.68-.09-1.25-.7-1.64-1.63a8.47,8.47,0,0,1-.55-3.13c0-.15,0-.32,0-.5A9,9,0,0,1,350.72,278.62Z"/><path class="cls-2" d="M351.56,279.16c-.62,0-1.17,1.23-1.24,2.83s.38,2.93,1,3,1.17-1.23,1.24-2.83S352.18,279.2,351.56,279.16Z"/><path class="cls-2" d="M351.56,279.79c-.11,0-.25.18-.39.5a5.17,5.17,0,0,0-.35,1.77v.27a4.82,4.82,0,0,0,.23,1.57c.1.26.2.42.28.44h0c.11,0,.26-.18.39-.5a5.17,5.17,0,0,0,.35-1.77v-.27a4.82,4.82,0,0,0-.23-1.57c-.09-.27-.19-.43-.28-.44Zm-1.26-.15c.31-.71.75-1.13,1.26-1.1h.05c.48.06.87.51,1.12,1.2a6.44,6.44,0,0,1,.33,2.11c0,.09,0,.2,0,.34a6.61,6.61,0,0,1-.47,2.29c-.31.71-.75,1.14-1.26,1.1h-.05c-.48-.06-.87-.51-1.12-1.2a6.19,6.19,0,0,1-.33-2.11c0-.09,0-.2,0-.34a6.61,6.61,0,0,1,.47-2.29Zm1,4.7Z"/><path class="cls-1" d="M140.7,280.4A57.16,57.16,0,0,1,155,291c-6.22-1-8.64-2-14.5-3.79Z"/><path class="cls-1" d="M141.72,289.27c2.19.75,3.1.88,5,1.57,2.14.77,5.08,2.06,4.13,2.25a16,16,0,0,1-4-.57C144.07,291.85,141.67,290.65,141.72,289.27Z"/><path class="cls-1" d="M141,292.26c4.67,1.59,10.9,3.45,9.12,3.81S141,294.31,141,292.26Z"/><path class="cls-2" d="M256.34,271.7c-8.18.7-23.49.29-29.92,5.18a91.25,91.25,0,0,0-8.09,7.68,38.26,38.26,0,0,1,7.32-8.6c6.57-5.58,21.82-5.6,30.38-6.57Z"/><path class="cls-2" d="M255.39,269.44c4.44-.35-3.5,9.22-5,10.45-1.16,1-4.56,1.46-6.18,1.74l-2.69.48.47-2.46c0-.15.44-.22,1-.32,4.75-.8,5.13-6.12,2.25-6.8l-2.72-.34.28-1.1Z"/><path class="cls-2" d="M148.92,260.84a8.29,8.29,0,0,1,2,4.23c.42,2.12.8,4.53,1.3,8.1,0-2.74.05-3.32-.13-6-.25-3.72-.84-6.12-2.19-7.87A10.59,10.59,0,0,0,148.92,260.84Z"/><path class="cls-2" d="M146.36,270.65l0,0a18.38,18.38,0,0,0,2.8,2,8.59,8.59,0,0,1,0-2c0-.15-.22-.36-.53-.63-2.52-2.21-.27-9.29,2.18-5.57a12.66,12.66,0,0,0,.95,1.25l-.37-3L149,260.72a27.43,27.43,0,0,0-2.63,9.85Z"/><path class="cls-2" d="M303,240.57a19.92,19.92,0,0,1,8.62,2.08c2.65,1.17,3.82,2.66,4.34,4.1a7.47,7.47,0,0,1,.39,2,5.22,5.22,0,0,0,2.21-.75,1.49,1.49,0,0,0,.51-1.79,6.6,6.6,0,0,0-1.48-2.14A15.73,15.73,0,0,0,305,239.69,3.57,3.57,0,0,0,303,240.57Z"/><path class="cls-2" d="M230.7,238.85c-8.44-2.06-3.78-8,13.93-16.75-.79,0-10.8-.22-11.69.11-8.16,3-15.63,7.65-24.18,14.32a32.23,32.23,0,0,1-3.9,3.12l-1.27,1,65.92,5.88C257.66,244.87,239.14,240.91,230.7,238.85Z"/><path class="cls-1" d="M199.71,239c26.85,1.52,57.44,4.09,84,8.2a37.55,37.55,0,0,1,6.36,1.3l-1.18-.09c-30.05-2.7-59.06-5.6-89.32-6.89a1.26,1.26,0,1,1,.12-2.52Z"/><path class="cls-2" d="M282.57,251.45c-5.38,2.06-58.84,19.72-66.76,19.72-4.29,0-42.44-4.8-58.74-7.43-2.45-.39-3.19-1.71-3.12-2.39-.95,1.88-.67,3.48,2.82,4l22.57,3.25,6.29.89c5.11.72,10.19,1.43,14.81,2,8.13,1.09,13.43,2.4,18.44,1.86,4.32-.46,17.15-4.21,30.77-8.54,15.69-5,32.36-10.72,38.24-13.08,3.61-1.44,2.26-2.54-.92-3.38C287.18,249.13,285.87,250.18,282.57,251.45Z"/><path class="cls-2" d="M135.82,296.16c-2.17,4.42,1.12,7.28,5.71,9.18,9.15,3.78,23.24,6.39,37.74,9,17.22,3.14,35.13,6.14,47.45,8.46l-2.82-.21c-23.15-2.43-54.87-7.05-77.67-12.93-8.92-2.3-17.15-6.43-13.08-15.1Z"/><polygon class="cls-2" points="288.19 313.34 341.29 296.22 287.06 316.97 288.19 313.34"/><path class="cls-2" d="M285.57,273.05c11.91-3.43,54-12.39,64.17-11.95-22.77,5.26-43,10.43-61.5,16.59Z"/></svg>